<svg version="1.1" xmlns="http://www.w3.org/2000/svg" xmlns:xlink="http://www.w3.org/1999/xlink" width="868.71875" height="489"><defs/><g><g transform="translate(-14,-6) scale(1,1)"><path fill="#C0C0C0" stroke="none" d="M 103 131 C 103 124.3725824 108.3725824 119 115 119 C 121.6274176 119 127 124.3725824 127 131 C 127 137.6274176 121.6274176 143 115 143 C 108.3725824 143 103 137.6274176 103 131 Z" opacity="0.2"/></g><g transform="translate(-14,-6) scale(1,1)"><path fill="#000000" stroke="none" d="M 96 124 C 96 117.3725824 101.3725824 112 108 112 C 114.6274176 112 120 117.3725824 120 124 C 120 130.6274176 114.6274176 136 108 136 C 101.3725824 136 96 130.6274176 96 124 Z"/></g><g transform="translate(-14,-6) scale(1,1)"><path fill="#C0C0C0" stroke="none" d="M 321 111 L 489.578125 111 Q 499.578125 111 499.578125 121 L 499.578125 144 Q 499.578125 154 489.578125 154 L 321 154 Q 311 154 311 144 L 311 121 Q 311 111 321 111 Z" opacity="0.2"/></g><g transform="translate(-14,-6) scale(1,1)"><path fill="#ffff91" stroke="none" d="M 314 104 L 482.578125 104 Q 492.578125 104 492.578125 114 L 492.578125 137 Q 492.578125 147 482.578125 147 L 314 147 Q 304 147 304 137 L 304 114 Q 304 104 314 104 Z"/></g><g transform="translate(-14,-6) scale(1,1)"><path fill="none" stroke="#000000" d="M 314 104 L 482.578125 104 Q 492.578125 104 492.578125 114 L 492.578125 137 Q 492.578125 147 482.578125 147 L 314 147 Q 304 147 304 137 L 304 114 Q 304 104 314 104 Z" stroke-miterlimit="10"/></g><g transform="translate(-14,-6) scale(1,1)"><g><path fill="none" stroke="none"/><text fill="#000000" stroke="none" font-family="Helvetica" font-size="16px" font-style="normal" font-weight="bold" text-decoration="none" x="315.12890625" y="126.5">ConfirmacionPendiente</text></g></g><g transform="translate(-14,-6) scale(1,1)"><path fill="none" stroke="#000000" d="M 121 124 L 303 125" stroke-miterlimit="10"/></g><g transform="translate(-14,-6) scale(1,1)"><path fill="none" stroke="#000000" d="M 292.81434967308263 129.15361618565896 L 303 125 L 292.8606074117161 120.7347077543674" stroke-miterlimit="10"/></g><g transform="translate(-14,-6) scale(1,1)"><g><path fill="none" stroke="none"/><text fill="#000000" stroke="none" font-family="Helvetica" font-size="16px" font-style="normal" font-weight="normal" text-decoration="none" x="152.5" y="116.5">registrarPedido()</text></g></g><g transform="translate(-14,-6) scale(1,1)"><path fill="#C0C0C0" stroke="none" d="M 665 111 L 766.9296875 111 Q 776.9296875 111 776.9296875 121 L 776.9296875 144 Q 776.9296875 154 766.9296875 154 L 665 154 Q 655 154 655 144 L 655 121 Q 655 111 665 111 Z" opacity="0.2"/></g><g transform="translate(-14,-6) scale(1,1)"><path fill="#ffff91" stroke="none" d="M 658 104 L 759.9296875 104 Q 769.9296875 104 769.9296875 114 L 769.9296875 137 Q 769.9296875 147 759.9296875 147 L 658 147 Q 648 147 648 137 L 648 114 Q 648 104 658 104 Z"/></g><g transform="translate(-14,-6) scale(1,1)"><path fill="none" stroke="#000000" d="M 658 104 L 759.9296875 104 Q 769.9296875 104 769.9296875 114 L 769.9296875 137 Q 769.9296875 147 759.9296875 147 L 658 147 Q 648 147 648 137 L 648 114 Q 648 104 658 104 Z" stroke-miterlimit="10"/></g><g transform="translate(-14,-6) scale(1,1)"><g><path fill="none" stroke="none"/><text fill="#000000" stroke="none" font-family="Helvetica" font-size="16px" font-style="normal" font-weight="bold" text-decoration="none" x="656.04296875" y="126.5">EnPreparacion</text></g></g><g transform="translate(-14,-6) scale(1,1)"><path fill="none" stroke="#000000" d="M 494 125 L 647 125" stroke-miterlimit="10"/></g><g transform="translate(-14,-6) scale(1,1)"><path fill="none" stroke="#000000" d="M 636.8373251423759 129.209517756016 L 647 125 L 636.8373251423758 120.79048224398402" stroke-miterlimit="10"/></g><g transform="translate(-14,-6) scale(1,1)"><g><path fill="none" stroke="none"/><text fill="#000000" stroke="none" font-family="Helvetica" font-size="16px" font-style="normal" font-weight="normal" text-decoration="none" x="506.5" y="117.5">confirmarPedido()</text></g></g><g transform="translate(-14,-6) scale(1,1)"><path fill="#C0C0C0" stroke="none" d="M 369 287 L 438.9140625 287 Q 448.9140625 287 448.9140625 297 L 448.9140625 320 Q 448.9140625 330 438.9140625 330 L 369 330 Q 359 330 359 320 L 359 297 Q 359 287 369 287 Z" opacity="0.2"/></g><g transform="translate(-14,-6) scale(1,1)"><path fill="#ffff91" stroke="none" d="M 362 280 L 431.9140625 280 Q 441.9140625 280 441.9140625 290 L 441.9140625 313 Q 441.9140625 323 431.9140625 323 L 362 323 Q 352 323 352 313 L 352 290 Q 352 280 362 280 Z"/></g><g transform="translate(-14,-6) scale(1,1)"><path fill="none" stroke="#000000" d="M 362 280 L 431.9140625 280 Q 441.9140625 280 441.9140625 290 L 441.9140625 313 Q 441.9140625 323 431.9140625 323 L 362 323 Q 352 323 352 313 L 352 290 Q 352 280 362 280 Z" stroke-miterlimit="10"/></g><g transform="translate(-14,-6) scale(1,1)"><g><path fill="none" stroke="none"/><text fill="#000000" stroke="none" font-family="Helvetica" font-size="16px" font-style="normal" font-weight="bold" text-decoration="none" x="358.70703125" y="302.5">Cancelado</text></g></g><g transform="translate(-14,-6) scale(1,1)"><path fill="none" stroke="#000000" d="M 398 148 L 396 279" stroke-miterlimit="10"/></g><g transform="translate(-14,-6) scale(1,1)"><path fill="none" stroke="#000000" d="M 391.9461100116127 268.77424936926127 L 396 279 L 400.36416451274505 268.9027692853091" stroke-miterlimit="10"/></g><g transform="translate(-14,-6) scale(1,1)"><g><path fill="none" stroke="none"/><text fill="#000000" stroke="none" font-family="Helvetica" font-size="16px" font-style="normal" font-weight="normal" text-decoration="none" x="265.5" y="226.5">cancelarPedido()</text></g></g><g transform="translate(-14,-6) scale(1,1)"><path fill="none" stroke="#000000" d="M 667 148 L 435 279" stroke-miterlimit="10"/></g><g transform="translate(-14,-6) scale(1,1)"><path fill="none" stroke="#000000" d="M 441.7796158086162 270.33762102609444 L 435 279 L 445.91913922576845 277.66868539845564" stroke-miterlimit="10"/></g><g transform="translate(-14,-6) scale(1,1)"><g><path fill="none" stroke="none"/><text fill="#000000" stroke="none" font-family="Helvetica" font-size="16px" font-style="normal" font-weight="normal" text-decoration="none" x="521.5" y="253.5">cancelarPedido()</text></g></g><g transform="translate(-14,-6) scale(1,1)"><path fill="#C0C0C0" stroke="none" d="M 633 287 L 789.1484375 287 Q 799.1484375 287 799.1484375 297 L 799.1484375 320 Q 799.1484375 330 789.1484375 330 L 633 330 Q 623 330 623 320 L 623 297 Q 623 287 633 287 Z" opacity="0.2"/></g><g transform="translate(-14,-6) scale(1,1)"><path fill="#ffff91" stroke="none" d="M 626 280 L 782.1484375 280 Q 792.1484375 280 792.1484375 290 L 792.1484375 313 Q 792.1484375 323 782.1484375 323 L 626 323 Q 616 323 616 313 L 616 290 Q 616 280 626 280 Z"/></g><g transform="translate(-14,-6) scale(1,1)"><path fill="none" stroke="#000000" d="M 626 280 L 782.1484375 280 Q 792.1484375 280 792.1484375 290 L 792.1484375 313 Q 792.1484375 323 782.1484375 323 L 626 323 Q 616 323 616 313 L 616 290 Q 616 280 626 280 Z" stroke-miterlimit="10"/></g><g transform="translate(-14,-6) scale(1,1)"><g><path fill="none" stroke="none"/><text fill="#000000" stroke="none" font-family="Helvetica" font-size="16px" font-style="normal" font-weight="bold" text-decoration="none" x="626.24609375" y="302.5">FacturacionPendiente</text></g></g><g transform="translate(-14,-6) scale(1,1)"><path fill="none" stroke="#000000" d="M 707 148 L 705 279" stroke-miterlimit="10"/></g><g transform="translate(-14,-6) scale(1,1)"><path fill="none" stroke="#000000" d="M 700.9461100116126 268.77424936926127 L 705 279 L 709.364164512745 268.9027692853091" stroke-miterlimit="10"/></g><g transform="translate(-14,-6) scale(1,1)"><g><path fill="none" stroke="none"/><text fill="#000000" stroke="none" font-family="Helvetica" font-size="16px" font-style="normal" font-weight="normal" text-decoration="none" x="710.5" y="219.5">informarCierrePedido()</text></g></g><g transform="translate(-14,-6) scale(1,1)"><path fill="#C0C0C0" stroke="none" d="M 681 447 L 747.34375 447 Q 757.34375 447 757.34375 457 L 757.34375 480 Q 757.34375 490 747.34375 490 L 681 490 Q 671 490 671 480 L 671 457 Q 671 447 681 447 Z" opacity="0.2"/></g><g transform="translate(-14,-6) scale(1,1)"><path fill="#ffff91" stroke="none" d="M 674 440 L 740.34375 440 Q 750.34375 440 750.34375 450 L 750.34375 473 Q 750.34375 483 740.34375 483 L 674 483 Q 664 483 664 473 L 664 450 Q 664 440 674 440 Z"/></g><g transform="translate(-14,-6) scale(1,1)"><path fill="none" stroke="#000000" d="M 674 440 L 740.34375 440 Q 750.34375 440 750.34375 450 L 750.34375 473 Q 750.34375 483 740.34375 483 L 674 483 Q 664 483 664 473 L 664 450 Q 664 440 674 440 Z" stroke-miterlimit="10"/></g><g transform="translate(-14,-6) scale(1,1)"><g><path fill="none" stroke="none"/><text fill="#000000" stroke="none" font-family="Helvetica" font-size="16px" font-style="normal" font-weight="bold" text-decoration="none" x="671.15234375" y="462.5">Facturado</text></g></g><g transform="translate(-14,-6) scale(1,1)"><path fill="none" stroke="#000000" d="M 704 324 L 707 439" stroke-miterlimit="10"/></g><g transform="translate(-14,-6) scale(1,1)"><path fill="none" stroke="#000000" d="M 702.5268907689165 428.95055753751507 L 707 439 L 710.9430630420799 428.73100521734557" stroke-miterlimit="10"/></g><g transform="translate(-14,-6) scale(1,1)"><g><path fill="none" stroke="none"/><text fill="#000000" stroke="none" font-family="Helvetica" font-size="16px" font-style="normal" font-weight="normal" text-decoration="none" x="712.5" y="384.5">facturarPedido()</text></g></g><g transform="translate(-14,-6) scale(1,1)"><path fill="#C0C0C0" stroke="none" d="M 345 447 L 470.03125 447 Q 480.03125 447 480.03125 457 L 480.03125 480 Q 480.03125 490 470.03125 490 L 345 490 Q 335 490 335 480 L 335 457 Q 335 447 345 447 Z" opacity="0.2"/></g><g transform="translate(-14,-6) scale(1,1)"><path fill="#ffff91" stroke="none" d="M 338 440 L 463.03125 440 Q 473.03125 440 473.03125 450 L 473.03125 473 Q 473.03125 483 463.03125 483 L 338 483 Q 328 483 328 473 L 328 450 Q 328 440 338 440 Z"/></g><g transform="translate(-14,-6) scale(1,1)"><path fill="none" stroke="#000000" d="M 338 440 L 463.03125 440 Q 473.03125 440 473.03125 450 L 473.03125 473 Q 473.03125 483 463.03125 483 L 338 483 Q 328 483 328 473 L 328 450 Q 328 440 338 440 Z" stroke-miterlimit="10"/></g><g transform="translate(-14,-6) scale(1,1)"><g><path fill="none" stroke="none"/><text fill="#000000" stroke="none" font-family="Helvetica" font-size="16px" font-style="normal" font-weight="bold" text-decoration="none" x="336.46484375" y="462.5">EntregaPendiente</text></g></g><g transform="translate(-14,-6) scale(1,1)"><path fill="none" stroke="#000000" d="M 663 461 L 474 461" stroke-miterlimit="10"/></g><g transform="translate(-14,-6) scale(1,1)"><path fill="none" stroke="#000000" d="M 484.16267485762415 456.790482243984 L 474 461 L 484.16267485762415 465.209517756016" stroke-miterlimit="10"/></g><g transform="translate(-14,-6) scale(1,1)"><g><path fill="none" stroke="none"/><text fill="#000000" stroke="none" font-family="Helvetica" font-size="16px" font-style="normal" font-weight="normal" text-decoration="none" x="507.5" y="485.5">entregarPedido()</text></g></g><g transform="translate(-14,-6) scale(1,1)"><path fill="#C0C0C0" stroke="none" d="M 81 447 L 149.1171875 447 Q 159.1171875 447 159.1171875 457 L 159.1171875 480 Q 159.1171875 490 149.1171875 490 L 81 490 Q 71 490 71 480 L 71 457 Q 71 447 81 447 Z" opacity="0.2"/></g><g transform="translate(-14,-6) scale(1,1)"><path fill="#ffff91" stroke="none" d="M 74 440 L 142.1171875 440 Q 152.1171875 440 152.1171875 450 L 152.1171875 473 Q 152.1171875 483 142.1171875 483 L 74 483 Q 64 483 64 473 L 64 450 Q 64 440 74 440 Z"/></g><g transform="translate(-14,-6) scale(1,1)"><path fill="none" stroke="#000000" d="M 74 440 L 142.1171875 440 Q 152.1171875 440 152.1171875 450 L 152.1171875 473 Q 152.1171875 483 142.1171875 483 L 74 483 Q 64 483 64 473 L 64 450 Q 64 440 74 440 Z" stroke-miterlimit="10"/></g><g transform="translate(-14,-6) scale(1,1)"><g><path fill="none" stroke="none"/><text fill="#000000" stroke="none" font-family="Helvetica" font-size="16px" font-style="normal" font-weight="bold" text-decoration="none" x="71.140625" y="462.5">Entregado</text></g></g><g transform="translate(-14,-6) scale(1,1)"><path fill="#C0C0C0" stroke="none" d="M 103 307.5 C 103 300.59644 108.59644 295 115.5 295 C 122.40356 295 128 300.59644 128 307.5 C 128 314.40356 122.40356 320 115.5 320 C 108.59644 320 103 314.40356 103 307.5 Z" opacity="0.2"/></g><g transform="translate(-14,-6) scale(1,1)"><path fill="none" stroke="#000000" d="M 96 300.5 C 96 293.59644 101.59644 288 108.5 288 C 115.40356 288 121 293.59644 121 300.5 C 121 307.40356 115.40356 313 108.5 313 C 101.59644 313 96 307.40356 96 300.5 Z" stroke-miterlimit="10"/></g><g transform="translate(-14,-6) scale(1,1)"><path fill="#000000" stroke="none" d="M 101 300.5 C 101 296.357864 104.357864 293 108.5 293 C 112.642136 293 116 296.357864 116 300.5 C 116 304.642136 112.642136 308 108.5 308 C 104.357864 308 101 304.642136 101 300.5 Z"/></g><g transform="translate(-14,-6) scale(1,1)"><path fill="none" stroke="#000000" d="M 108 439 L 108 314" stroke-miterlimit="10"/></g><g transform="translate(-14,-6) scale(1,1)"><path fill="none" stroke="#000000" d="M 112.20951775601598 324.16267485762415 L 108 314 L 103.79048224398402 324.16267485762415" stroke-miterlimit="10"/></g><g transform="translate(-14,-6) scale(1,1)"><path fill="none" stroke="#000000" d="M 351 301 L 122 300" stroke-miterlimit="10"/></g><g transform="translate(-14,-6) scale(1,1)"><path fill="none" stroke="#000000" d="M 132.18095996108164 295.8349004488665 L 122 300 L 132.1441959643931 304.25385569054606" stroke-miterlimit="10"/></g><g transform="translate(-14,-6) scale(1,1)"><path fill="none" stroke="#000000" d="M 327 461 L 153 461" stroke-miterlimit="10"/></g><g transform="translate(-14,-6) scale(1,1)"><path fill="none" stroke="#000000" d="M 163.16267485762415 456.790482243984 L 153 461 L 163.16267485762415 465.209517756016" stroke-miterlimit="10"/></g><g transform="translate(-14,-6) scale(1,1)"><g><path fill="none" stroke="none"/><text fill="#000000" stroke="none" font-family="Helvetica" font-size="16px" font-style="normal" font-weight="normal" text-decoration="none" x="175.5" y="485.5">confirmarEntrega()</text></g></g><g transform="translate(-14,-6) scale(1,1)"><path fill="none" stroke="#000000" d="M 399 439 L 397 324" stroke-miterlimit="10"/></g><g transform="translate(-14,-6) scale(1,1)"><path fill="none" stroke="#000000" d="M 401.38559674935306 334.0879403820633 L 397 324 L 392.9678341486546 334.2343362533798" stroke-miterlimit="10"/></g><g transform="translate(-14,-6) scale(1,1)"><g><path fill="none" stroke="none"/><text fill="#000000" stroke="none" font-family="Helvetica" font-size="16px" font-style="normal" font-weight="normal" text-decoration="none" x="405.5" y="379.5">cancelarPedido()</text></g></g><g transform="translate(-14,-6) scale(1,1)"><g><path fill="none" stroke="none"/><text fill="#000000" stroke="none" font-family="Helvetica" font-size="20px" font-style="normal" font-weight="normal" text-decoration="none" x="300" y="41">MÁQUINA DE ESTADO</text></g></g><g transform="translate(-14,-6) scale(1,1)"><g><path fill="none" stroke="none"/><text fill="#000000" stroke="none" font-family="Helvetica" font-size="28px" font-style="normal" font-weight="normal" text-decoration="none" x="29" y="65">CLASE PEDIDO</text></g></g></g></svg>